# Blender 4.2.0
# www.blender.org
mtllib PSXBroom.mtl
o PSXBroom
v 0.000000 -2.952319 -0.100621
v 0.000000 2.998436 -0.100621
v 0.114093 -2.952319 0.096994
v 0.114093 2.998436 0.096994
v -0.114093 -2.952319 0.096994
v -0.114093 2.998436 0.096994
v -0.301892 -3.112513 1.000000
v -0.301892 -2.926244 1.000000
v -0.301892 -3.112513 -1.000000
v -0.301892 -2.926244 -1.000000
v 0.301892 -3.112513 1.000000
v 0.301892 -2.926244 1.000000
v 0.301892 -3.112513 -1.000000
v 0.301892 -2.926244 -1.000000
v -0.427530 -3.551159 1.000000
v -0.286077 -3.110184 1.000000
v -0.427530 -3.551159 -1.000000
v -0.286077 -3.110184 -1.000000
v 0.427530 -3.551159 1.000000
v 0.286077 -3.110184 1.000000
v 0.427530 -3.551159 -1.000000
v 0.286077 -3.110184 -1.000000
vn 0.8660 -0.0000 -0.5000
vn -0.0000 -0.0000 1.0000
vn -0.0000 1.0000 -0.0000
vn -0.8660 -0.0000 -0.5000
vn -0.0000 -1.0000 -0.0000
vn -1.0000 -0.0000 -0.0000
vn -0.0000 -0.0000 -1.0000
vn 1.0000 -0.0000 -0.0000
vn -0.9522 0.3054 -0.0000
vn 0.9522 0.3054 -0.0000
vt 0.171406 0.422650
vt 0.171406 -2.538414
vt 0.738693 -2.538414
vt 0.738693 0.422650
vt -0.395881 0.422650
vt -0.395881 -2.538414
vt 0.171406 -2.538414
vt 0.171406 0.422650
vt 0.171406 0.422650
vt 0.662691 1.704828
vt 0.171406 2.987007
vt -0.395881 3.383715
vt 0.171406 3.383715
vt 1.153976 1.704829
vt 0.662691 2.987007
vt 0.662691 0.422650
vt 0.334247 0.500000
vt 0.127500 0.500000
vt 0.127500 -0.000000
vt 0.334247 0.000000
vt 0.540994 0.500000
vt 0.334247 0.500000
vt 0.334247 -0.000000
vt 0.540994 0.000000
vt 0.334247 1.000000
vt 0.127500 1.000000
vt 0.127500 0.500000
vt 0.334247 0.500000
vt 0.540994 1.000000
vt 0.334247 1.000000
vt 0.334247 0.500000
vt 0.747740 0.000000
vt 0.747740 0.500000
vt 0.540994 0.500000
vt 0.540994 -0.000000
vt 0.747740 0.500000
vt 0.747740 1.000000
vt 0.660012 1.706498
vt 0.495182 1.706498
vt 0.495182 -3.489162
vt 0.660012 -3.489162
vt 0.335170 -0.002167
vt 0.175159 0.128637
vt 0.175159 0.657718
vt 0.335170 0.788522
vt 0.824841 1.706498
vt 0.660012 1.706498
vt 0.660012 -3.489162
vt 0.824841 -3.489162
vt 0.495182 0.766964
vt 0.335170 0.643293
vt 0.335170 0.143062
vt 0.495182 0.019391
vt 0.985869 0.958964
vt 0.985869 0.033935
vt 0.093253 0.033935
vt 0.093254 0.958964
vt 0.984853 -3.489162
vt 0.984853 1.706498
vt 0.824841 1.706498
s 0
usemtl Material.002
f 1/1/1 2/2/1 4/3/1 3/4/1
f 3/5/2 4/6/2 6/7/2 5/8/2
f 4/9/3 2/10/3 6/11/3
f 5/12/4 6/5/4 2/1/4 1/13/4
f 1/14/5 3/15/5 5/16/5
usemtl Material.003
f 7/17/6 8/18/6 10/19/6 9/20/6
f 9/21/7 10/22/7 14/23/7 13/24/7
f 13/25/8 14/26/8 12/27/8 11/28/8
f 11/29/2 12/30/2 8/31/2 7/21/2
f 9/32/5 13/33/5 11/34/5 7/35/5
f 14/36/3 10/37/3 8/29/3 12/21/3
usemtl Material.001
f 15/38/9 16/39/9 18/40/9 17/41/9
f 17/42/7 18/43/7 22/44/7 21/45/7
f 21/46/10 22/47/10 20/48/10 19/49/10
f 19/50/2 20/51/2 16/52/2 15/53/2
f 17/54/5 21/55/5 19/56/5 15/57/5
f 22/58/3 18/59/3 16/60/3 20/49/3
